<svg xmlns="http://www.w3.org/2000/svg" width="64" height="64" viewBox="0 0 64 64" fill="none">
  <defs>
    <linearGradient id="ss-grad" x1="0%" y1="0%" x2="100%" y2="100%">
      <stop offset="0%" stop-color="#6366f1" />
      <stop offset="100%" stop-color="#a855f7" />
    </linearGradient>
    <filter id="shadow" x="-20%" y="-20%" width="140%" height="140%">
      <feDropShadow dx="0" dy="4" stdDeviation="6" flood-color="#6366f1" flood-opacity="0.4" />
    </filter>
  </defs>
  <rect x="4" y="4" width="56" height="56" rx="16" fill="url(#ss-grad)" filter="url(#shadow)" />
  <g transform="translate(14, 14) scale(1.5)" fill="none" stroke="#ffffff" stroke-width="2" stroke-linecap="round" stroke-linejoin="round">
    <path d="M21.42 10.922a1 1 0 0 0-.019-.838L12.83 3.18a2 2 0 0 0-1.66 0L2.6 10.084a1 1 0 0 0 0 1.832l8.57 6.908a2 2 0 0 0 1.66 0l6.71-5.409a1 1 0 0 0 .34-.893z"/>
    <path d="M6 12.5v5c0 1.5 2.5 3 6 3s6-1.5 6-3v-5"/>
  </g>
</svg>